<svg width="364" height="364" viewBox="0 0 364 364" fill="none" xmlns="http://www.w3.org/2000/svg">
<rect width="364" height="364" rx="75.8333" fill="url(#paint0_linear_2048_72)"/>
<path d="M144.083 45.5V125.125H219.917V45.5H144.083ZM125.125 144.083H45.5V219.917H125.125V144.083ZM144.083 219.917V144.083H219.917V219.917H144.083ZM125.125 238.875H45.5V271.104C45.5 283.674 50.4935 295.73 59.3819 304.618C68.2704 313.507 80.3257 318.5 92.8958 318.5H125.125V238.875ZM144.083 318.5H219.917V238.875H144.083V318.5ZM238.875 318.5V238.875H318.5V271.104C318.5 283.674 313.507 295.73 304.618 304.618C295.73 313.507 283.674 318.5 271.104 318.5H238.875ZM318.5 144.083V219.917H238.875V144.083H318.5ZM318.5 125.125V92.8958C318.5 80.3257 313.507 68.2704 304.618 59.3819C295.73 50.4935 283.674 45.5 271.104 45.5H238.875V125.125H318.5Z" fill="#F8FAFC"/>
<defs>
<linearGradient id="paint0_linear_2048_72" x1="0" y1="0" x2="364" y2="364" gradientUnits="userSpaceOnUse">
<stop offset="0.51" stop-color="#1F2937"/>
<stop offset="1" stop-color="#030712"/>
</linearGradient>
</defs>
</svg>
